HIERARCHY
ROOT SpineBase
{
  OFFSET 0.000000 0.000000 0.000000
  CHANNELS 6 Xposition Yposition Zposition Zrotation Xrotation Yrotation
  JOINT SpineMid
  {
    OFFSET 0.000000 25.469944 0.000000
    CHANNELS 3 Zrotation Xrotation Yrotation
    JOINT SpineShoulder
    {
      OFFSET 0.100325 18.938120 -0.796284
      CHANNELS 3 Zrotation Xrotation Yrotation
      JOINT Neck
      {
        OFFSET -0.011763 6.343483 -0.587100
        CHANNELS 3 Zrotation Xrotation Yrotation
        JOINT Head
        {
          OFFSET 1.887808 11.820798 -2.177665
          CHANNELS 3 Zrotation Xrotation Yrotation
          End Site
          {
            OFFSET 0 0 0
          }
        }
      }
      JOINT ShoulderLeft
      {
        OFFSET -13.463130 -0.588057 3.430073
        CHANNELS 3 Zrotation Xrotation Yrotation
        JOINT ElbowLeft
        {
          OFFSET -3.661017 -21.710815 -9.503964
          CHANNELS 3 Zrotation Xrotation Yrotation
          JOINT WristLeft
          {
            OFFSET 6.664377 -14.487077 -11.913194
            CHANNELS 3 Zrotation Xrotation Yrotation
            JOINT HandLeft
            {
              OFFSET 1.240273 -3.869425 -1.754528
              CHANNELS 3 Zrotation Xrotation Yrotation
              JOINT HandTipLeft
              {
                OFFSET 1.485185 -3.543071 -2.161599
                CHANNELS 3 Zrotation Xrotation Yrotation
                End Site
                {
                  OFFSET 0 0 0
                }
              }
              JOINT ThumbLeft
              {
                OFFSET -1.632086 0.316384 -4.960853
                CHANNELS 3 Zrotation Xrotation Yrotation
                End Site
                {
                  OFFSET 0 0 0
                }
              }
            }
          }
        }
      }
      JOINT ShoulderRight
      {
        OFFSET 14.007491 6.434493 -4.349144
        CHANNELS 3 Zrotation Xrotation Yrotation
        JOINT ElbowRight
        {
          OFFSET 2.303327 -16.694892 -5.639678
          CHANNELS 3 Zrotation Xrotation Yrotation
          JOINT WristRight
          {
            OFFSET -1.616635 -15.657665 -8.426764
            CHANNELS 3 Zrotation Xrotation Yrotation
            JOINT HandRight
            {
              OFFSET -0.330699 -0.684861 0.021778
              CHANNELS 3 Zrotation Xrotation Yrotation
              JOINT HandTipRight
              {
                OFFSET -0.091610 -1.055519 -1.450759
                CHANNELS 3 Zrotation Xrotation Yrotation
                End Site
                {
                  OFFSET 0 0 0
                }
              }
              JOINT ThumbRight
              {
                OFFSET -0.239190 0.729715 -2.064458
                CHANNELS 3 Zrotation Xrotation Yrotation
                End Site
                {
                  OFFSET 0 0 0
                }
              }
            }
          }
        }
      }
    }
  }
  JOINT HipLeft
  {
    OFFSET -8.135613 1.189844 -0.718731
    CHANNELS 3 Zrotation Xrotation Yrotation
    JOINT KneeLeft
    {
      OFFSET 10.866408 -19.670404 -8.366321
      CHANNELS 3 Zrotation Xrotation Yrotation
      JOINT AnkleLeft
      {
        OFFSET -0.682486 -29.825550 5.840936
        CHANNELS 3 Zrotation Xrotation Yrotation
        JOINT FootLeft
        {
          OFFSET -2.620313 -2.960728 -14.552099
          CHANNELS 3 Zrotation Xrotation Yrotation
          End Site
          {
            OFFSET 0 0 0
          }
        }
      }
    }
  }
  JOINT HipRight
  {
    OFFSET 7.492212 0.713795 -5.032971
    CHANNELS 3 Zrotation Xrotation Yrotation
    JOINT KneeRight
    {
      OFFSET -3.946442 -23.191842 -1.356776
      CHANNELS 3 Zrotation Xrotation Yrotation
      JOINT AnkleRight
      {
        OFFSET -28.641654 18.657990 2.237062
        CHANNELS 3 Zrotation Xrotation Yrotation
        JOINT FootRight
        {
          OFFSET 8.273623 -7.681092 -3.004038
          CHANNELS 3 Zrotation Xrotation Yrotation
          End Site
          {
            OFFSET 0 0 0
          }
        }
      }
    }
  }
}
MOTION
Frames: 7
Frame Time: 0.033333
37.738351 63.130308 338.266351 -4.728293 -7.452244 4.329863 0.875175 0.363577 -4.802716 -0.071069 0.079342 -0.243095 13.458841 11.648065 -0.424135 0.000000 0.000000 0.000000 8.578283 -17.918799 3.105866 -21.662214 3.299105 9.112407 -5.835645 -12.928593 -10.208382 0.173267 43.295022 24.196797 0.000000 0.000000 0.000000 0.000000 0.000000 0.000000 -4.430024 18.265922 6.143999 11.199118 -17.498984 -4.138981 9.059488 27.462394 -13.025313 -8.962996 -24.119287 9.186483 0.000000 0.000000 0.000000 0.000000 0.000000 0.000000 2.160322 -6.310722 -12.047214 4.359020 8.582380 7.058008 -24.747615 54.589006 19.851036 0.000000 0.000000 0.000000 19.292750 18.142326 -10.949289 -11.877434 -13.032390 1.545953 -48.099281 15.828550 67.912273 0.000000 0.000000 0.000000
37.827859 63.672267 338.184656 -4.786454 -7.457400 4.500339 0.740836 0.249635 -4.979787 -0.145240 -0.037780 -0.259637 13.794189 11.811704 -0.445253 0.000000 0.000000 0.000000 10.612098 -18.465347 2.603743 -24.148895 1.724510 10.242167 -4.588775 -12.409218 -10.909741 -6.020492 34.862918 27.843693 0.000000 0.000000 0.000000 0.000000 0.000000 0.000000 -4.793940 17.729128 6.368106 11.970989 -16.610562 -4.351770 7.921222 27.277592 -12.570200 -8.086703 -23.953540 9.357796 0.000000 0.000000 0.000000 0.000000 0.000000 0.000000 0.975746 -5.940901 -11.511035 5.750954 8.391142 6.216755 -19.226505 53.869893 11.748398 0.000000 0.000000 0.000000 19.891124 17.901725 -11.222194 -12.373576 -12.933690 1.511010 -51.105148 14.766564 71.903080 0.000000 0.000000 0.000000
36.622848 64.441124 339.483936 -4.910699 -7.610315 6.546547 0.618205 0.145657 -7.045312 -0.160763 -0.034794 -0.273662 13.946011 11.985960 -0.473158 0.000000 0.000000 0.000000 14.663913 -16.776300 0.636863 -27.881395 -2.623517 11.391232 -0.608586 -6.351717 -8.740948 -7.537145 22.921046 22.863037 0.000000 0.000000 0.000000 0.000000 0.000000 0.000000 -4.473531 17.997781 6.370283 11.909051 -16.626999 -4.336335 7.955802 27.269601 -12.573301 -8.132036 -23.950766 9.344341 0.000000 0.000000 0.000000 0.000000 0.000000 0.000000 0.987815 -4.605611 -12.744744 6.047851 7.099145 5.505919 -16.116184 52.271502 7.490007 0.000000 0.000000 0.000000 20.624806 16.793876 -13.140408 -12.471135 -12.394819 1.472212 -52.796338 12.320878 71.287681 0.000000 0.000000 0.000000
35.551285 64.529055 340.402504 -5.010965 -7.765004 2.464595 0.512613 0.025820 -2.984302 -0.118055 0.017078 -0.281513 13.182601 12.056748 -0.485156 0.000000 0.000000 0.000000 18.097449 -16.474200 -0.819345 -30.782590 -5.518577 12.166335 3.575337 0.960863 -6.685751 -8.059368 11.850665 16.034525 0.000000 0.000000 0.000000 0.000000 0.000000 0.000000 -4.095724 18.349481 6.284345 11.643590 -16.671930 -4.267986 8.170122 27.242132 -12.632409 -8.303002 -23.950204 9.297679 0.000000 0.000000 0.000000 0.000000 0.000000 0.000000 1.191553 -6.251430 -9.851175 5.837330 9.101245 6.476021 -12.936664 49.127964 3.407834 0.000000 0.000000 0.000000 19.633385 19.308409 -9.498893 -12.382114 -13.413312 1.540526 -50.109031 14.039535 68.814758 0.000000 0.000000 0.000000
36.061315 64.485477 339.753739 -5.098169 -8.031865 5.140751 0.432460 0.069693 -5.676986 -0.144200 0.056112 -0.290251 13.465773 11.907467 -0.435690 0.000000 0.000000 0.000000 21.469212 -17.097215 -1.955578 -33.379198 -7.481116 13.022619 4.873747 6.895849 -3.996494 -7.769255 2.673904 9.791620 0.000000 0.000000 0.000000 0.000000 0.000000 0.000000 -3.942792 18.508894 6.327460 11.675763 -16.664659 -4.276421 8.152240 27.241051 -12.627263 -8.285445 -23.949334 9.302091 0.000000 0.000000 0.000000 0.000000 0.000000 0.000000 -0.181481 -4.601164 -11.076407 7.502512 7.753170 5.013976 -14.014740 52.553648 3.963363 0.000000 0.000000 0.000000 21.020278 18.004659 -12.201077 -12.885230 -12.854868 1.477242 -50.084259 14.072587 68.821056 0.000000 0.000000 0.000000
36.254323 63.978562 339.451237 -5.191381 -7.996530 3.918708 0.561237 0.264311 -4.460293 -0.150544 0.072506 -0.287238 13.705155 11.497718 -0.343503 0.000000 0.000000 0.000000 24.163028 -18.582884 -2.534637 -36.194529 -9.945515 14.265129 8.020526 16.164438 -1.823833 -9.292126 -6.351750 4.474427 0.000000 0.000000 0.000000 0.000000 0.000000 0.000000 -3.955288 18.265216 6.301775 11.679313 -16.665107 -4.277411 8.150766 27.241015 -12.627904 -8.281026 -23.950210 9.303647 0.000000 0.000000 0.000000 0.000000 0.000000 0.000000 0.236752 -5.385571 -10.479836 7.066054 8.514731 5.563772 -14.832424 52.447591 5.334408 0.000000 0.000000 0.000000 20.974955 18.553345 -11.118897 -13.080047 -13.058804 1.477741 -49.936914 14.252701 68.831624 0.000000 0.000000 0.000000
35.244536 62.706117 340.381683 -4.816523 -7.378360 4.055685 0.534087 0.397541 -4.525694 -0.105351 0.240578 -0.258515 13.275658 10.547070 -0.163642 0.000000 0.000000 0.000000 25.749141 -21.221838 -2.187789 -37.394812 -8.584871 15.482256 9.433649 22.765793 0.169896 -10.883640 -12.746054 0.435635 0.000000 0.000000 0.000000 0.000000 0.000000 0.000000 -4.262615 17.351302 6.167795 11.672551 -16.664345 -4.276342 8.135709 27.239925 -12.618382 -8.285174 -23.949518 9.302239 0.000000 0.000000 0.000000 0.000000 0.000000 0.000000 4.129495 -6.963790 -12.848688 2.247737 8.835651 8.344924 -21.979514 51.080213 17.490451 0.000000 0.000000 0.000000 19.225255 18.190702 -10.652919 -11.813863 -13.060176 1.551519 -49.659611 14.558362 68.797425 0.000000 0.000000 0.000000
